<svg width="820" height="267" viewBox="0 0 820 267" fill="none" xmlns="http://www.w3.org/2000/svg">
<rect y="72.8182" width="43.6909" height="145.636" rx="21.8455" fill="#00D4D9"/>
<rect x="65.5364" width="43.6909" height="218.455" rx="21.8455" fill="#00EDCC"/>
<rect x="131.073" y="109.227" width="43.6909" height="109.227" rx="21.8455" fill="#00E2A9"/>
<path d="M206.024 102.49C205.74 101.808 205.598 101.04 205.598 100.186C205.598 99.276 206.081 98.252 207.048 97.1142C208.072 95.9196 209.58 95.3222 211.571 95.3222H230.259C232.478 95.3222 234.526 96.0902 236.403 97.6262C238.28 99.1623 239.617 101.096 240.414 103.429L262.942 171.013L283.763 103.429C285.413 98.0245 288.798 95.3222 293.918 95.3222H309.62C314.74 95.3222 318.124 98.0245 319.774 103.429L340.596 171.013L363.124 103.429C363.92 101.096 365.257 99.1623 367.135 97.6262C369.012 96.0902 371.06 95.3222 373.279 95.3222H391.967C393.901 95.3222 395.352 95.9196 396.319 97.1142C397.343 98.252 397.855 99.276 397.855 100.186C397.855 101.04 397.741 101.808 397.513 102.49L359.454 208.987C357.35 214.79 353.254 217.691 347.166 217.691H334.793C328.478 217.691 324.411 214.79 322.59 208.987L301.769 143.28L280.947 208.987C279.07 214.79 275.002 217.691 268.745 217.691H256.286C250.256 217.691 246.188 214.79 244.083 208.987L206.024 102.49ZM398.449 209.84L419.867 128.602C425.67 106.473 444.557 95.3791 476.529 95.3222H522.524C524.629 95.3222 526.364 96.1187 527.729 97.7116C529.152 99.3045 529.863 101.153 529.863 103.258V209.84C529.863 212.059 529.066 213.936 527.473 215.472C525.88 216.951 523.975 217.691 521.756 217.691H505.713C503.381 217.691 501.447 216.951 499.911 215.472C498.431 213.936 497.692 212.002 497.692 209.67V188.165H437.019L431.302 209.67C430.733 212.002 429.453 213.936 427.462 215.472C425.471 216.951 423.366 217.691 421.147 217.691H404.337C402.118 217.691 400.525 217.065 399.558 215.814C398.591 214.505 398.107 213.367 398.107 212.4C398.164 211.433 398.278 210.58 398.449 209.84ZM443.334 164.016H497.692V119.472H473.372C467.91 119.472 463.132 121.036 459.036 124.165C454.996 127.237 452.266 131.39 450.844 136.624L443.334 164.016ZM547.865 102.49C547.523 101.808 547.353 101.068 547.353 100.272C547.353 99.4183 547.865 98.3943 548.889 97.1996C549.97 95.948 551.477 95.3222 553.411 95.3222H572.099C576.537 95.3222 579.922 98.0245 582.254 103.429L615.278 176.987L648.303 103.429C650.635 98.0814 654.02 95.3791 658.457 95.3222H677.145C679.137 95.3222 680.644 95.948 681.668 97.1996C682.692 98.3943 683.204 99.4183 683.204 100.272C683.204 101.068 683.062 101.808 682.777 102.49L633.625 208.987C630.951 214.79 626.884 217.691 621.422 217.691H609.134C603.673 217.691 599.605 214.79 596.932 208.987L547.865 102.49ZM700.694 209.499V103.258C700.694 101.04 701.491 99.1623 703.083 97.6262C704.676 96.0902 706.582 95.3222 708.801 95.3222H807.191C809.409 95.3222 811.287 96.1187 812.823 97.7116C814.416 99.3045 815.212 101.21 815.212 103.429V111.45C815.212 113.669 814.416 115.575 812.823 117.168C811.287 118.704 809.409 119.472 807.191 119.472H732.865V144.304H796.865C799.084 144.304 800.961 145.1 802.497 146.693C804.09 148.229 804.887 150.107 804.887 152.325V160.347C804.887 162.565 804.09 164.471 802.497 166.064C800.961 167.6 799.084 168.368 796.865 168.368H732.865V193.541H807.02C809.182 193.541 811.031 194.309 812.567 195.845C814.103 197.381 814.871 199.259 814.871 201.477V209.67C814.871 211.888 814.074 213.794 812.481 215.387C810.889 216.923 808.983 217.691 806.764 217.691H708.801C706.582 217.691 704.676 216.923 703.083 215.387C701.491 213.794 700.694 211.831 700.694 209.499Z" fill="#00EDCC"/>
</svg>
